<svg width="153" height="153" viewBox="0 0 153 153" fill="none" xmlns="http://www.w3.org/2000/svg">
<g clip-path="url(#clip0_28_97)">
<path d="M64.0207 137.913L69.9475 146.586C71.5337 148.908 75.1665 147.797 75.1665 144.985V103.094C75.1665 100.903 72.8463 99.6011 71.0851 100.904C65.6914 104.896 57.5264 112.653 63.4458 119.776C71.879 129.925 56.6536 124.073 49.0093 120.777C33.8482 114.24 50.6305 94.3024 18.6152 91.918C17.0824 91.8038 15.7358 92.9803 15.7859 94.5166C16.4926 116.193 45.3994 131.501 62.4813 136.78C63.1109 136.975 63.6489 137.369 64.0207 137.913Z" fill="url(#paint0_linear_28_97)"/>
<path d="M89.2382 137.913L83.3115 146.586C81.7252 148.908 78.0925 147.797 78.0925 144.985V103.094C78.0925 100.903 80.4126 99.6011 82.1739 100.904C87.5676 104.896 95.7325 112.653 89.8132 119.776C81.38 129.925 96.6053 124.073 104.25 120.777C119.411 114.24 102.628 94.3024 134.644 91.918C136.177 91.8038 137.523 92.9803 137.473 94.5166C136.766 116.193 107.86 131.501 90.7777 136.78C90.148 136.975 89.6101 137.369 89.2382 137.913Z" fill="url(#paint1_linear_28_97)"/>
<path d="M85.668 66.9142C85.668 71.1639 81.6364 74.6089 76.6631 74.6089C71.6898 74.6089 67.6582 71.1639 67.6582 66.9142C67.6582 62.6645 71.6898 35.7305 76.6631 35.7305C81.6364 35.7305 85.668 62.6645 85.668 66.9142Z" fill="url(#paint2_linear_28_97)"/>
<path d="M67.6582 66.8667C67.6582 62.617 71.6898 59.1719 76.6631 59.1719C81.6364 59.1719 85.6681 62.617 85.6681 66.8667C85.6681 71.1164 81.6364 98.0503 76.6631 98.0503C71.6898 98.0503 67.6582 71.1164 67.6582 66.8667Z" fill="url(#paint3_linear_28_97)"/>
<path d="M76.6394 75.8954C72.3897 75.8954 68.9446 71.8637 68.9446 66.8904C68.9446 61.9171 72.3897 57.8855 76.6394 57.8855C80.8891 57.8855 107.823 61.9172 107.823 66.8904C107.823 71.8637 80.8891 75.8954 76.6394 75.8954Z" fill="url(#paint4_linear_28_97)"/>
<path d="M76.6869 57.8855C80.9366 57.8855 84.3816 61.9172 84.3816 66.8904C84.3816 71.8637 80.9366 75.8954 76.6869 75.8954C72.4372 75.8954 45.5032 71.8637 45.5032 66.8904C45.5032 61.9172 72.4372 57.8855 76.6869 57.8855Z" fill="url(#paint5_linear_28_97)"/>
<path d="M85.668 66.9142C85.668 71.1639 81.6364 74.6089 76.6631 74.6089C71.6898 74.6089 67.6582 71.1639 67.6582 66.9142C67.6582 62.6645 71.6898 35.7305 76.6631 35.7305C81.6364 35.7305 85.668 62.6645 85.668 66.9142Z" fill="url(#paint6_linear_28_97)"/>
<path d="M67.6582 66.8667C67.6582 62.617 71.6898 59.1719 76.6631 59.1719C81.6364 59.1719 85.6681 62.617 85.6681 66.8667C85.6681 71.1164 81.6364 98.0503 76.6631 98.0503C71.6898 98.0503 67.6582 71.1164 67.6582 66.8667Z" fill="url(#paint7_linear_28_97)"/>
<path d="M84.2387 33.8724C84.2387 40.7402 81.6659 25.1533 76.7874 25.1533C71.6604 24.7245 68.9446 40.7402 68.9446 33.8724C68.9446 27.0045 71.8141 6 76.7874 6C81.7606 6 84.2387 27.0045 84.2387 33.8724Z" fill="url(#paint8_linear_28_97)"/>
<path d="M43.6451 59.1719C50.5129 59.1719 34.926 61.7448 34.926 66.6233C34.4972 71.7502 50.5129 74.466 43.6451 74.466C36.7772 74.466 15.7727 71.5965 15.7727 66.6233C15.7727 61.65 36.7772 59.1719 43.6451 59.1719Z" fill="url(#paint9_linear_28_97)"/>
<path d="M109.571 74.7519C102.703 74.7519 118.29 72.179 118.29 67.3005C118.719 62.1736 102.703 59.4578 109.571 59.4578C116.439 59.4578 137.443 62.3273 137.443 67.3005C137.443 72.2738 116.439 74.7519 109.571 74.7519Z" fill="url(#paint10_linear_28_97)"/>
<path d="M103.746 50.1298C98.5663 54.6392 108.633 42.4644 105.43 38.7848C102.387 34.6363 88.5243 43.1037 93.7044 38.5943C98.8844 34.0849 116.611 22.4578 119.876 26.2089C123.142 29.96 108.926 45.6204 103.746 50.1298Z" fill="url(#paint11_linear_28_97)"/>
<path d="M47.9443 50.1298C53.1243 54.6392 43.0573 42.4644 46.2605 38.7848C49.3034 34.6363 63.1663 43.1037 57.9862 38.5943C52.8062 34.0849 35.0796 22.4578 31.8141 26.2089C28.5487 29.96 42.7642 45.6204 47.9443 50.1298Z" fill="url(#paint12_linear_28_97)"/>
<path d="M76.629 35.0761C77.0494 35.0761 77.4732 35.2788 77.8986 35.6708C78.3239 36.0628 78.7442 36.6375 79.1554 37.3642C79.9775 38.8172 80.7541 40.859 81.4659 43.2069C82.8893 47.9017 84.0487 53.8005 84.7999 58.6064L84.8107 58.6757L84.88 58.6864C89.6858 59.4376 95.5836 60.597 100.278 62.0204C102.627 62.7324 104.669 63.5087 106.122 64.331C106.849 64.7422 107.424 65.1624 107.816 65.5878C108.207 66.013 108.41 66.4361 108.41 66.8564C108.41 67.2768 108.208 67.7005 107.816 68.1259C107.424 68.5513 106.849 68.9715 106.122 69.3827C104.669 70.2049 102.627 70.9814 100.278 71.6933C95.5837 73.1165 89.6858 74.2751 84.88 75.0263L84.8107 75.037L84.7999 75.1073C84.0487 79.9131 82.8893 85.8109 81.4659 90.5058C80.754 92.8539 79.9776 94.8964 79.1554 96.3495C78.7442 97.0762 78.324 97.6509 77.8986 98.0429C77.4731 98.4349 77.0495 98.6376 76.629 98.6376L76.4718 98.6278C76.1033 98.5837 75.7327 98.3859 75.3605 98.0429C74.9351 97.6509 74.5148 97.0762 74.1036 96.3495C73.2814 94.8964 72.505 92.8539 71.7931 90.5058C70.3697 85.811 69.2103 79.9132 68.4591 75.1073L68.4484 75.038L68.379 75.0273L66.5294 74.7265C62.1168 73.9819 57.0875 72.9387 52.9796 71.6933C50.6317 70.9814 48.5899 70.2049 47.1368 69.3827C46.4102 68.9716 45.8355 68.5513 45.4435 68.1259C45.0515 67.7005 44.8488 67.2768 44.8488 66.8564L44.8585 66.6991C44.9026 66.3306 45.1005 65.9601 45.4435 65.5878C45.8355 65.1624 46.4101 64.7422 47.1368 64.331C48.5899 63.5088 50.6317 62.7323 52.9796 62.0204C57.6744 60.597 63.5731 59.4377 68.379 58.6864L68.4484 58.6757L68.4591 58.6064C69.2103 53.8004 70.3696 47.9017 71.7931 43.2069C72.505 40.859 73.2815 38.8172 74.1036 37.3642C74.5148 36.6375 74.935 36.0628 75.3605 35.6708C75.7327 35.3278 76.1033 35.13 76.4718 35.0858L76.629 35.0761Z" fill="url(#paint13_linear_28_97)" stroke="url(#paint14_linear_28_97)" stroke-width="0.193196"/>
<g filter="url(#filter0_di_28_97)">
<circle cx="76.6296" cy="67.2432" r="9.08022" fill="#FF9900"/>
<circle cx="76.6296" cy="67.2432" r="9.00294" stroke="url(#paint15_linear_28_97)" stroke-width="0.154557"/>
</g>
<g filter="url(#filter1_i_28_97)">
<path d="M84.3574 34.0134C84.3574 40.7803 81.6296 25.5128 76.8228 25.5128C71.7712 25.0903 68.9017 40.7803 68.9017 34.0134C69.2881 23.0012 71.9226 14.5006 76.8228 14.5006C81.723 14.5006 84.3574 27.2465 84.3574 34.0134Z" fill="url(#paint16_linear_28_97)"/>
</g>
<path d="M76.8226 14.5973C78.0016 14.5973 79.0599 15.3636 79.9886 16.6539C80.9162 17.9427 81.7012 19.737 82.3353 21.7487C83.6033 25.7711 84.2611 30.6393 84.2611 34.0133C84.2611 34.4348 84.2497 34.7688 84.2289 35.025C84.2079 35.2833 84.1773 35.456 84.14 35.5582C84.1212 35.6096 84.1045 35.6344 84.0941 35.6442C84.0928 35.6454 84.091 35.6455 84.0902 35.6461C84.0839 35.6444 84.0666 35.6373 84.0385 35.611C84.0092 35.5835 83.9752 35.5419 83.9359 35.485C83.7769 35.2544 83.5746 34.8255 83.3295 34.2594C83.2075 33.9779 83.0754 33.6647 82.934 33.3287C82.7926 32.993 82.6423 32.6341 82.4818 32.2623C81.8402 30.7764 81.0447 29.0713 80.1068 27.7369C79.175 26.4112 78.0802 25.4202 76.8295 25.4166H76.8304C75.5139 25.3067 74.3587 26.2465 73.3763 27.5563C72.39 28.8714 71.5539 30.5907 70.8793 32.1031C70.5429 32.8572 70.2428 33.5698 69.9877 34.1471C69.7299 34.7305 69.5171 35.1786 69.349 35.4264C69.3076 35.4875 69.2707 35.5332 69.2386 35.5651C69.2054 35.5981 69.1833 35.6101 69.1732 35.6129C69.1701 35.6138 69.1716 35.6138 69.1693 35.6119C69.1611 35.6055 69.1438 35.5858 69.1244 35.5377C69.0859 35.4421 69.0537 35.2756 69.0316 35.0201C69.0098 34.7679 68.9985 34.437 68.9984 34.0172C69.1914 28.5162 69.946 23.6495 71.2601 20.1617C72.5775 16.6655 74.4388 14.5974 76.8226 14.5973Z" stroke="url(#paint17_linear_28_97)" stroke-width="0.193196"/>
<g filter="url(#filter2_i_28_97)">
<path d="M58.4195 38.8057C63.553 43.2147 50.1935 35.3366 47.0617 38.9832C43.4498 42.5401 53.483 54.9396 48.3495 50.5307C40.2473 43.0627 35.515 35.5257 38.7077 31.8083C41.9003 28.0909 53.286 34.3968 58.4195 38.8057Z" fill="url(#paint18_linear_28_97)"/>
</g>
<path d="M38.7809 31.8714C39.5491 30.977 40.8199 30.6734 42.4039 30.8096C43.9859 30.9457 45.8586 31.5192 47.7978 32.3488C51.6755 34.0076 55.7971 36.6805 58.3567 38.8787C58.6765 39.1534 58.9224 39.3796 59.1032 39.5624C59.2854 39.7466 59.3965 39.8823 59.4498 39.9772C59.4765 40.0249 59.4844 40.0537 59.4851 40.068C59.4852 40.0699 59.4841 40.0712 59.484 40.0722C59.4786 40.0759 59.4619 40.0844 59.4236 40.0886C59.3837 40.0929 59.33 40.0916 59.2612 40.0843C58.9827 40.0547 58.5255 39.9287 57.9364 39.7458C57.6433 39.6549 57.3197 39.5511 56.9727 39.4395C56.6258 39.328 56.2557 39.2082 55.8691 39.0877C54.3238 38.6063 52.512 38.0989 50.8886 37.941C49.2758 37.7841 47.8106 37.9689 46.9931 38.9154L46.9937 38.9147C46.0525 39.8419 46.0129 41.3305 46.3664 42.9291C46.7214 44.5342 47.481 46.2886 48.1888 47.7859C48.5417 48.5323 48.8867 49.2243 49.1585 49.794C49.4331 50.3696 49.6344 50.823 49.7128 51.112C49.7322 51.1832 49.7429 51.241 49.7461 51.286C49.7495 51.3328 49.7442 51.3574 49.7398 51.3669C49.7385 51.3698 49.7394 51.3687 49.7365 51.3692C49.7263 51.3712 49.7001 51.3716 49.651 51.3549C49.5534 51.3218 49.4061 51.2377 49.1979 51.0881C48.9923 50.9403 48.7339 50.7333 48.4154 50.4598C44.368 46.7292 41.1677 42.986 39.378 39.7167C37.584 36.4393 37.2278 33.6799 38.7809 31.8714Z" stroke="url(#paint19_linear_28_97)" stroke-width="0.193196"/>
<g filter="url(#filter3_i_28_97)">
<path d="M93.2044 38.8057C88.0709 43.2147 101.43 35.3366 104.562 38.9832C108.174 42.5401 98.1409 54.9396 103.274 50.5307C111.377 43.0627 116.109 35.5257 112.916 31.8083C109.724 28.0909 98.3379 34.3968 93.2044 38.8057Z" fill="url(#paint20_linear_28_97)"/>
</g>
<path d="M112.843 31.8714C112.075 30.977 110.804 30.6734 109.22 30.8096C107.638 30.9457 105.765 31.5192 103.826 32.3488C99.9484 34.0076 95.8268 36.6805 93.2672 38.8787C92.9474 39.1534 92.7015 39.3796 92.5207 39.5624C92.3385 39.7466 92.2274 39.8823 92.1741 39.9772C92.1474 40.0249 92.1395 40.0537 92.1388 40.068C92.1387 40.0699 92.1398 40.0712 92.1399 40.0722C92.1453 40.0759 92.162 40.0844 92.2003 40.0886C92.2402 40.0929 92.2939 40.0916 92.3627 40.0843C92.6412 40.0547 93.0984 39.9287 93.6875 39.7458C93.9806 39.6549 94.3042 39.5511 94.6512 39.4395C94.9981 39.328 95.3682 39.2082 95.7548 39.0877C97.3001 38.6063 99.1119 38.0989 100.735 37.941C102.348 37.7841 103.813 37.9689 104.631 38.9154L104.63 38.9147C105.571 39.8419 105.611 41.3305 105.257 42.9291C104.902 44.5342 104.143 46.2886 103.435 47.7859C103.082 48.5323 102.737 49.2243 102.465 49.794C102.191 50.3696 101.989 50.823 101.911 51.112C101.892 51.1832 101.881 51.241 101.878 51.286C101.874 51.3328 101.88 51.3574 101.884 51.3669C101.885 51.3698 101.885 51.3687 101.887 51.3692C101.898 51.3712 101.924 51.3716 101.973 51.3549C102.071 51.3218 102.218 51.2377 102.426 51.0881C102.632 50.9403 102.89 50.7333 103.209 50.4598C107.256 46.7292 110.456 42.986 112.246 39.7167C114.04 36.4393 114.396 33.6799 112.843 31.8714Z" stroke="url(#paint21_linear_28_97)" stroke-width="0.193196"/>
<g filter="url(#filter4_i_28_97)">
<path d="M44.1725 59.1289C50.9395 59.1289 35.6719 61.6636 35.6719 66.4704C35.2494 71.522 50.9395 74.5846 44.1725 74.5846C33.1604 74.1982 24.6597 71.3706 24.6597 66.4704C24.6597 61.5702 37.4056 59.1289 44.1725 59.1289Z" fill="url(#paint22_linear_28_97)"/>
</g>
<path d="M24.7564 66.4704C24.7564 65.2916 25.5228 64.2452 26.813 63.3346C28.1016 62.4253 29.8953 61.6644 31.9068 61.0544C35.9292 59.8346 40.7978 59.2253 44.1724 59.2253C44.5942 59.2253 44.9287 59.2351 45.1851 59.2545C45.4435 59.2742 45.6165 59.3034 45.7193 59.3385C45.7682 59.3553 45.7917 59.3719 45.8023 59.3815L45.772 59.4215C45.7447 59.449 45.7032 59.482 45.6461 59.5192C45.4151 59.6697 44.9856 59.8616 44.4195 60.0954C43.8613 60.3259 43.1614 60.6008 42.4224 60.9079C40.9365 61.5253 39.2315 62.2958 37.897 63.2155C36.571 64.1293 35.5794 65.2125 35.5757 66.4635L35.5757 66.4626C35.4658 67.7787 36.4051 68.9457 37.7144 69.946C39.0294 70.9504 40.7489 71.8107 42.2613 72.5094C42.6396 72.6842 43.0055 72.849 43.3492 73.0036C43.6931 73.1583 44.015 73.3033 44.3052 73.4372C44.8883 73.7061 45.336 73.9294 45.5836 74.1061C45.6448 74.1498 45.6913 74.1884 45.7232 74.2223C45.7559 74.2571 45.7676 74.2809 45.7711 74.2936C45.773 74.3008 45.7725 74.3027 45.7691 74.3073C45.7619 74.3168 45.7418 74.3341 45.6949 74.3542C45.5998 74.3947 45.4336 74.4293 45.1783 74.4528C44.9264 74.476 44.5958 74.4879 44.1763 74.4879C38.676 74.2949 33.8094 73.4927 30.3218 72.1305C26.8258 70.765 24.7564 68.8552 24.7564 66.4704Z" stroke="url(#paint23_linear_28_97)" stroke-width="0.193196"/>
<g filter="url(#filter5_i_28_97)">
<path d="M109.078 59.3221C102.311 59.3221 117.578 61.8568 117.578 66.6636C118.001 71.7152 102.311 74.7778 109.078 74.7778C120.09 74.3914 128.591 71.5638 128.591 66.6636C128.591 61.7634 115.845 59.3221 109.078 59.3221Z" fill="url(#paint24_linear_28_97)"/>
</g>
<path d="M128.494 66.6636C128.494 65.4848 127.727 64.4384 126.437 63.5278C125.149 62.6185 123.355 61.8576 121.343 61.2476C117.321 60.0278 112.452 59.4185 109.078 59.4185C108.656 59.4185 108.322 59.4283 108.065 59.4478C107.807 59.4674 107.634 59.4966 107.531 59.5317C107.482 59.5485 107.459 59.5651 107.448 59.5747L107.478 59.6147C107.506 59.6422 107.547 59.6752 107.604 59.7124C107.835 59.8629 108.265 60.0548 108.831 60.2886C109.389 60.5191 110.089 60.794 110.828 61.1011C112.314 61.7185 114.019 62.489 115.353 63.4087C116.679 64.3226 117.671 65.4057 117.675 66.6567L117.675 66.6558C117.784 67.9719 116.845 69.1389 115.536 70.1392C114.221 71.1437 112.501 72.0039 110.989 72.7026C110.611 72.8774 110.245 73.0422 109.901 73.1968C109.557 73.3515 109.235 73.4965 108.945 73.6304C108.362 73.8994 107.914 74.1226 107.667 74.2993C107.605 74.343 107.559 74.3816 107.527 74.4155C107.494 74.4503 107.483 74.4741 107.479 74.4868C107.477 74.494 107.478 74.4959 107.481 74.5005C107.488 74.51 107.508 74.5273 107.555 74.5474C107.65 74.5879 107.817 74.6225 108.072 74.646C108.324 74.6692 108.654 74.6811 109.074 74.6812C114.574 74.4882 119.441 73.6859 122.928 72.3237C126.424 70.9582 128.494 69.0485 128.494 66.6636Z" stroke="url(#paint25_linear_28_97)" stroke-width="0.193196"/>
<path d="M89.1239 137.916L83.1991 146.586C81.6133 148.907 77.9818 147.797 77.9818 144.986V103.108C77.9818 100.918 80.3012 99.6164 82.0618 100.919C87.4538 104.91 95.6161 112.664 89.6986 119.785C81.2682 129.93 96.4886 124.081 104.13 120.785C119.287 114.25 102.51 94.3195 134.515 91.9358C136.047 91.8217 137.393 92.9978 137.343 94.5336C136.637 116.203 107.739 131.506 90.6629 136.784C90.0334 136.978 89.4956 137.372 89.1239 137.916Z" fill="url(#paint26_linear_28_97)"/>
<g filter="url(#filter6_i_28_97)">
<path d="M95.6449 130.257L106.72 119.07C106.88 118.908 107.067 118.764 107.256 118.637C116.469 112.415 103.598 93.5884 135.335 91.8805C136.849 91.799 138.165 92.9678 138.106 94.483C137.401 112.665 115.471 127.017 98.2526 134.353C95.5353 135.511 93.5669 132.356 95.6449 130.257Z" fill="url(#paint27_linear_28_97)"/>
</g>
<path d="M63.9995 137.916L69.9244 146.586C71.5101 148.907 75.1416 147.797 75.1416 144.986V103.108C75.1416 100.918 72.8222 99.6164 71.0616 100.919C65.6696 104.91 57.5073 112.664 63.4248 119.785C71.8552 129.93 56.6348 124.081 48.993 120.785C33.8369 114.25 50.6137 94.3195 18.6089 91.9358C17.0766 91.8217 15.7304 92.9978 15.7805 94.5336C16.4869 116.203 45.3843 131.506 62.4606 136.784C63.09 136.978 63.6278 137.372 63.9995 137.916Z" fill="url(#paint28_linear_28_97)"/>
<g filter="url(#filter7_i_28_97)">
<path d="M57.4787 130.257L46.4034 119.07C46.2432 118.908 46.0564 118.764 45.8677 118.637C36.6544 112.415 49.5258 93.5884 17.7891 91.8805C16.2748 91.799 14.9588 92.9678 15.0175 94.483C15.7222 112.665 37.6527 127.017 54.8711 134.353C57.5884 135.511 59.5568 132.356 57.4787 130.257Z" fill="url(#paint29_linear_28_97)"/>
</g>
</g>
<defs>
<filter id="filter0_di_28_97" x="66.0038" y="56.6174" width="21.2516" height="21.2516" filterUnits="userSpaceOnUse" color-interpolation-filters="sRGB">
<feFlood flood-opacity="0" result="BackgroundImageFix"/>
<feColorMatrix in="SourceAlpha" type="matrix" values="0 0 0 0 0 0 0 0 0 0 0 0 0 0 0 0 0 0 127 0" result="hardAlpha"/>
<feOffset/>
<feGaussianBlur stdDeviation="0.772784"/>
<feComposite in2="hardAlpha" operator="out"/>
<feColorMatrix type="matrix" values="0 0 0 0 1 0 0 0 0 0.6 0 0 0 0 0 0 0 0 1 0"/>
<feBlend mode="normal" in2="BackgroundImageFix" result="effect1_dropShadow_28_97"/>
<feBlend mode="normal" in="SourceGraphic" in2="effect1_dropShadow_28_97" result="shape"/>
<feColorMatrix in="SourceAlpha" type="matrix" values="0 0 0 0 0 0 0 0 0 0 0 0 0 0 0 0 0 0 127 0" result="hardAlpha"/>
<feOffset/>
<feGaussianBlur stdDeviation="2.01783"/>
<feComposite in2="hardAlpha" operator="arithmetic" k2="-1" k3="1"/>
<feColorMatrix type="matrix" values="0 0 0 0 0.298039 0 0 0 0 0.180392 0 0 0 0 0 0 0 0 0.25 0"/>
<feBlend mode="normal" in2="shape" result="effect2_innerShadow_28_97"/>
</filter>
<filter id="filter1_i_28_97" x="68.9017" y="14.5006" width="15.4557" height="22.0156" filterUnits="userSpaceOnUse" color-interpolation-filters="sRGB">
<feFlood flood-opacity="0" result="BackgroundImageFix"/>
<feBlend mode="normal" in="SourceGraphic" in2="BackgroundImageFix" result="shape"/>
<feColorMatrix in="SourceAlpha" type="matrix" values="0 0 0 0 0 0 0 0 0 0 0 0 0 0 0 0 0 0 127 0" result="hardAlpha"/>
<feOffset dy="0.772784"/>
<feGaussianBlur stdDeviation="0.772784"/>
<feComposite in2="hardAlpha" operator="arithmetic" k2="-1" k3="1"/>
<feColorMatrix type="matrix" values="0 0 0 0 0.298039 0 0 0 0 0.180392 0 0 0 0 0 0 0 0 1 0"/>
<feBlend mode="normal" in2="shape" result="effect1_innerShadow_28_97"/>
</filter>
<filter id="filter2_i_28_97" x="37.7021" y="30.6819" width="21.879" height="21.5577" filterUnits="userSpaceOnUse" color-interpolation-filters="sRGB">
<feFlood flood-opacity="0" result="BackgroundImageFix"/>
<feBlend mode="normal" in="SourceGraphic" in2="BackgroundImageFix" result="shape"/>
<feColorMatrix in="SourceAlpha" type="matrix" values="0 0 0 0 0 0 0 0 0 0 0 0 0 0 0 0 0 0 127 0" result="hardAlpha"/>
<feOffset dy="0.772784"/>
<feGaussianBlur stdDeviation="0.772784"/>
<feComposite in2="hardAlpha" operator="arithmetic" k2="-1" k3="1"/>
<feColorMatrix type="matrix" values="0 0 0 0 0.298039 0 0 0 0 0.180392 0 0 0 0 0 0 0 0 1 0"/>
<feBlend mode="normal" in2="shape" result="effect1_innerShadow_28_97"/>
</filter>
<filter id="filter3_i_28_97" x="92.0428" y="30.6819" width="21.879" height="21.5577" filterUnits="userSpaceOnUse" color-interpolation-filters="sRGB">
<feFlood flood-opacity="0" result="BackgroundImageFix"/>
<feBlend mode="normal" in="SourceGraphic" in2="BackgroundImageFix" result="shape"/>
<feColorMatrix in="SourceAlpha" type="matrix" values="0 0 0 0 0 0 0 0 0 0 0 0 0 0 0 0 0 0 127 0" result="hardAlpha"/>
<feOffset dy="0.772784"/>
<feGaussianBlur stdDeviation="0.772784"/>
<feComposite in2="hardAlpha" operator="arithmetic" k2="-1" k3="1"/>
<feColorMatrix type="matrix" values="0 0 0 0 0.298039 0 0 0 0 0.180392 0 0 0 0 0 0 0 0 1 0"/>
<feBlend mode="normal" in2="shape" result="effect1_innerShadow_28_97"/>
</filter>
<filter id="filter4_i_28_97" x="24.6597" y="59.1289" width="21.2429" height="16.2285" filterUnits="userSpaceOnUse" color-interpolation-filters="sRGB">
<feFlood flood-opacity="0" result="BackgroundImageFix"/>
<feBlend mode="normal" in="SourceGraphic" in2="BackgroundImageFix" result="shape"/>
<feColorMatrix in="SourceAlpha" type="matrix" values="0 0 0 0 0 0 0 0 0 0 0 0 0 0 0 0 0 0 127 0" result="hardAlpha"/>
<feOffset dy="0.772784"/>
<feGaussianBlur stdDeviation="0.772784"/>
<feComposite in2="hardAlpha" operator="arithmetic" k2="-1" k3="1"/>
<feColorMatrix type="matrix" values="0 0 0 0 0.298039 0 0 0 0 0.180392 0 0 0 0 0 0 0 0 1 0"/>
<feBlend mode="normal" in2="shape" result="effect1_innerShadow_28_97"/>
</filter>
<filter id="filter5_i_28_97" x="107.348" y="59.3221" width="21.2429" height="16.2285" filterUnits="userSpaceOnUse" color-interpolation-filters="sRGB">
<feFlood flood-opacity="0" result="BackgroundImageFix"/>
<feBlend mode="normal" in="SourceGraphic" in2="BackgroundImageFix" result="shape"/>
<feColorMatrix in="SourceAlpha" type="matrix" values="0 0 0 0 0 0 0 0 0 0 0 0 0 0 0 0 0 0 127 0" result="hardAlpha"/>
<feOffset dy="0.772784"/>
<feGaussianBlur stdDeviation="0.772784"/>
<feComposite in2="hardAlpha" operator="arithmetic" k2="-1" k3="1"/>
<feColorMatrix type="matrix" values="0 0 0 0 0.298039 0 0 0 0 0.180392 0 0 0 0 0 0 0 0 1 0"/>
<feBlend mode="normal" in2="shape" result="effect1_innerShadow_28_97"/>
</filter>
<filter id="filter6_i_28_97" x="94.7775" y="91.8765" width="44.1033" height="43.4973" filterUnits="userSpaceOnUse" color-interpolation-filters="sRGB">
<feFlood flood-opacity="0" result="BackgroundImageFix"/>
<feBlend mode="normal" in="SourceGraphic" in2="BackgroundImageFix" result="shape"/>
<feColorMatrix in="SourceAlpha" type="matrix" values="0 0 0 0 0 0 0 0 0 0 0 0 0 0 0 0 0 0 127 0" result="hardAlpha"/>
<feOffset dx="0.772784" dy="0.772784"/>
<feGaussianBlur stdDeviation="1.93196"/>
<feComposite in2="hardAlpha" operator="arithmetic" k2="-1" k3="1"/>
<feColorMatrix type="matrix" values="0 0 0 0 0.0784314 0 0 0 0 0.156863 0 0 0 0 0.0862745 0 0 0 0.25 0"/>
<feBlend mode="normal" in2="shape" result="effect1_innerShadow_28_97"/>
</filter>
<filter id="filter7_i_28_97" x="15.0156" y="91.8765" width="44.1033" height="43.4973" filterUnits="userSpaceOnUse" color-interpolation-filters="sRGB">
<feFlood flood-opacity="0" result="BackgroundImageFix"/>
<feBlend mode="normal" in="SourceGraphic" in2="BackgroundImageFix" result="shape"/>
<feColorMatrix in="SourceAlpha" type="matrix" values="0 0 0 0 0 0 0 0 0 0 0 0 0 0 0 0 0 0 127 0" result="hardAlpha"/>
<feOffset dx="0.772784" dy="0.772784"/>
<feGaussianBlur stdDeviation="1.93196"/>
<feComposite in2="hardAlpha" operator="arithmetic" k2="-1" k3="1"/>
<feColorMatrix type="matrix" values="0 0 0 0 0.0784314 0 0 0 0 0.156863 0 0 0 0 0.0862745 0 0 0 0.25 0"/>
<feBlend mode="normal" in2="shape" result="effect1_innerShadow_28_97"/>
</filter>
<linearGradient id="paint0_linear_28_97" x1="79.6398" y1="-107.12" x2="67.9356" y2="228.755" gradientUnits="userSpaceOnUse">
<stop stop-color="#49F62A"/>
<stop offset="0.521108" stop-color="#237814"/>
</linearGradient>
<linearGradient id="paint1_linear_28_97" x1="79.6398" y1="-107.12" x2="67.9356" y2="228.755" gradientUnits="userSpaceOnUse">
<stop stop-color="#49F62A"/>
<stop offset="0.521108" stop-color="#237814"/>
</linearGradient>
<linearGradient id="paint2_linear_28_97" x1="79.6398" y1="-107.12" x2="67.9356" y2="228.755" gradientUnits="userSpaceOnUse">
<stop stop-color="#49F62A"/>
<stop offset="0.521108" stop-color="#237814"/>
</linearGradient>
<linearGradient id="paint3_linear_28_97" x1="79.6398" y1="-107.12" x2="67.9356" y2="228.755" gradientUnits="userSpaceOnUse">
<stop stop-color="#49F62A"/>
<stop offset="0.521108" stop-color="#237814"/>
</linearGradient>
<linearGradient id="paint4_linear_28_97" x1="79.6398" y1="-107.12" x2="67.9356" y2="228.755" gradientUnits="userSpaceOnUse">
<stop stop-color="#49F62A"/>
<stop offset="0.521108" stop-color="#237814"/>
</linearGradient>
<linearGradient id="paint5_linear_28_97" x1="79.6398" y1="-107.12" x2="67.9356" y2="228.755" gradientUnits="userSpaceOnUse">
<stop stop-color="#49F62A"/>
<stop offset="0.521108" stop-color="#237814"/>
</linearGradient>
<linearGradient id="paint6_linear_28_97" x1="79.6398" y1="-107.12" x2="67.9356" y2="228.755" gradientUnits="userSpaceOnUse">
<stop stop-color="#49F62A"/>
<stop offset="0.521108" stop-color="#237814"/>
</linearGradient>
<linearGradient id="paint7_linear_28_97" x1="79.6398" y1="-107.12" x2="67.9356" y2="228.755" gradientUnits="userSpaceOnUse">
<stop stop-color="#49F62A"/>
<stop offset="0.521108" stop-color="#237814"/>
</linearGradient>
<linearGradient id="paint8_linear_28_97" x1="79.6398" y1="-107.12" x2="67.9356" y2="228.755" gradientUnits="userSpaceOnUse">
<stop stop-color="#49F62A"/>
<stop offset="0.521108" stop-color="#237814"/>
</linearGradient>
<linearGradient id="paint9_linear_28_97" x1="79.6398" y1="-107.12" x2="67.9356" y2="228.755" gradientUnits="userSpaceOnUse">
<stop stop-color="#49F62A"/>
<stop offset="0.521108" stop-color="#237814"/>
</linearGradient>
<linearGradient id="paint10_linear_28_97" x1="79.6398" y1="-107.12" x2="67.9356" y2="228.755" gradientUnits="userSpaceOnUse">
<stop stop-color="#49F62A"/>
<stop offset="0.521108" stop-color="#237814"/>
</linearGradient>
<linearGradient id="paint11_linear_28_97" x1="79.6398" y1="-107.12" x2="67.9356" y2="228.755" gradientUnits="userSpaceOnUse">
<stop stop-color="#49F62A"/>
<stop offset="0.521108" stop-color="#237814"/>
</linearGradient>
<linearGradient id="paint12_linear_28_97" x1="79.6398" y1="-107.12" x2="67.9356" y2="228.755" gradientUnits="userSpaceOnUse">
<stop stop-color="#49F62A"/>
<stop offset="0.521108" stop-color="#237814"/>
</linearGradient>
<linearGradient id="paint13_linear_28_97" x1="76.4362" y1="37.8773" x2="76.4362" y2="113.803" gradientUnits="userSpaceOnUse">
<stop stop-color="#FFC36A"/>
<stop offset="0.610577" stop-color="#FFA929"/>
<stop offset="1" stop-color="#4C2E00"/>
</linearGradient>
<linearGradient id="paint14_linear_28_97" x1="76.6294" y1="34.9794" x2="76.6294" y2="98.7341" gradientUnits="userSpaceOnUse">
<stop stop-color="#4C2E00"/>
<stop offset="1" stop-color="white"/>
</linearGradient>
<linearGradient id="paint15_linear_28_97" x1="76.6296" y1="58.163" x2="76.6296" y2="76.3234" gradientUnits="userSpaceOnUse">
<stop stop-color="white" stop-opacity="0.7"/>
<stop offset="1" stop-color="#CF7C01"/>
</linearGradient>
<linearGradient id="paint16_linear_28_97" x1="76.8228" y1="12.955" x2="76.2432" y2="34.3998" gradientUnits="userSpaceOnUse">
<stop offset="0.413462" stop-color="#FF9900"/>
<stop offset="1" stop-color="#237814" stop-opacity="0.8"/>
</linearGradient>
<linearGradient id="paint17_linear_28_97" x1="77.7888" y1="3.87482" x2="76.6296" y2="35.7105" gradientUnits="userSpaceOnUse">
<stop stop-color="#142816"/>
<stop offset="1" stop-color="#666666" stop-opacity="0"/>
</linearGradient>
<linearGradient id="paint18_linear_28_97" x1="37.5352" y1="30.8013" x2="53.4259" y2="45.2131" gradientUnits="userSpaceOnUse">
<stop offset="0.413462" stop-color="#FF9900"/>
<stop offset="1" stop-color="#237814" stop-opacity="0.8"/>
</linearGradient>
<linearGradient id="paint19_linear_28_97" x1="31.2762" y1="24.1524" x2="54.672" y2="45.774" gradientUnits="userSpaceOnUse">
<stop stop-color="#142816"/>
<stop offset="1" stop-color="#666666" stop-opacity="0"/>
</linearGradient>
<linearGradient id="paint20_linear_28_97" x1="114.089" y1="30.8013" x2="98.198" y2="45.2131" gradientUnits="userSpaceOnUse">
<stop offset="0.413462" stop-color="#FF9900"/>
<stop offset="1" stop-color="#237814" stop-opacity="0.8"/>
</linearGradient>
<linearGradient id="paint21_linear_28_97" x1="120.348" y1="24.1524" x2="96.9519" y2="45.774" gradientUnits="userSpaceOnUse">
<stop stop-color="#142816"/>
<stop offset="1" stop-color="#666666" stop-opacity="0"/>
</linearGradient>
<linearGradient id="paint22_linear_28_97" x1="23.1142" y1="66.4704" x2="44.5589" y2="67.05" gradientUnits="userSpaceOnUse">
<stop offset="0.495192" stop-color="#FF9900"/>
<stop offset="1" stop-color="#237814"/>
</linearGradient>
<linearGradient id="paint23_linear_28_97" x1="14.0339" y1="65.5044" x2="45.8697" y2="66.6636" gradientUnits="userSpaceOnUse">
<stop stop-color="#142816"/>
<stop offset="1" stop-color="#666666" stop-opacity="0"/>
</linearGradient>
<linearGradient id="paint24_linear_28_97" x1="130.136" y1="66.6636" x2="108.691" y2="67.2432" gradientUnits="userSpaceOnUse">
<stop offset="0.495192" stop-color="#FF9900"/>
<stop offset="1" stop-color="#237814"/>
</linearGradient>
<linearGradient id="paint25_linear_28_97" x1="139.216" y1="65.6976" x2="107.381" y2="66.8568" gradientUnits="userSpaceOnUse">
<stop stop-color="#142816"/>
<stop offset="1" stop-color="#666666" stop-opacity="0"/>
</linearGradient>
<linearGradient id="paint26_linear_28_97" x1="91.7619" y1="95.0634" x2="83.2612" y2="154.375" gradientUnits="userSpaceOnUse">
<stop stop-color="#49F62A"/>
<stop offset="0.778846" stop-color="#1C5215"/>
</linearGradient>
<linearGradient id="paint27_linear_28_97" x1="136.907" y1="91.7791" x2="103.023" y2="137.075" gradientUnits="userSpaceOnUse">
<stop stop-color="#49F62A"/>
<stop offset="1" stop-color="#237814"/>
</linearGradient>
<linearGradient id="paint28_linear_28_97" x1="61.3616" y1="95.0634" x2="69.8622" y2="154.375" gradientUnits="userSpaceOnUse">
<stop stop-color="#49F62A"/>
<stop offset="0.778846" stop-color="#1C5215"/>
</linearGradient>
<linearGradient id="paint29_linear_28_97" x1="16.2168" y1="91.7791" x2="50.1009" y2="137.075" gradientUnits="userSpaceOnUse">
<stop stop-color="#49F62A"/>
<stop offset="1" stop-color="#237814"/>
</linearGradient>
<clipPath id="clip0_28_97">
<rect width="153" height="153" fill="white"/>
</clipPath>
</defs>
</svg>
