<svg width="109" height="126" viewBox="0 0 109 126" fill="none" xmlns="http://www.w3.org/2000/svg">
<g filter="url(#filter0_i_10_43)">
<path d="M2.44698 75.7803C2.60054 75.7885 2.7528 75.7994 2.90401 75.8086C2.99374 75.8052 3.0849 75.8057 3.17647 75.8125C3.62917 75.8462 4.07079 75.8842 4.50166 75.9258C29.8876 78.1246 19.2997 94.0387 27.2233 99.3896C27.3897 99.502 27.5547 99.6288 27.696 99.7715L28.3356 100.417C28.8351 100.726 29.386 101.015 29.9958 101.278C34.414 103.183 41.7012 106.054 44.113 105.293C45.363 104.884 45.2691 103.475 42.7155 100.402C37.4945 94.1191 44.6961 87.2769 49.4538 83.7559C49.5069 83.7165 49.5608 83.6795 49.6149 83.6455C51.1491 82.6614 53.0759 83.799 53.0759 85.6748V122.639C53.0759 124.215 51.7827 125.183 50.4802 125.156C49.7257 125.147 48.966 124.806 48.4509 124.052L43.2224 116.401C42.8944 115.921 42.4202 115.574 41.8649 115.402C40.1462 114.871 38.292 114.223 36.3542 113.467C35.9896 113.496 35.5889 113.436 35.1677 113.257C19.9744 106.784 0.623521 94.1199 0.00166408 78.0762C-0.0500482 76.7392 1.11091 75.7084 2.44698 75.7803ZM106.168 75.7803C107.504 75.7084 108.665 76.7392 108.613 78.0762C107.991 94.12 88.6403 106.784 73.447 113.257C73.0567 113.423 72.6842 113.488 72.3415 113.473C70.4112 114.226 68.5639 114.87 66.8513 115.399C66.2957 115.571 65.8209 115.918 65.4929 116.398L60.2634 124.052C59.7278 124.835 58.9278 125.175 58.1442 125.157C56.8461 125.178 55.5603 124.21 55.5603 122.64V85.6865C55.5605 84.3869 56.4864 83.4432 57.5651 83.3135C58.1182 83.2208 58.7188 83.3421 59.2595 83.7422C64.0188 87.2644 71.2239 94.11 66.0007 100.396C62.6707 104.403 63.5208 105.58 66.0817 105.4C69.2629 105.138 74.9473 102.875 78.6335 101.285C79.2213 101.032 79.754 100.754 80.239 100.457L80.9187 99.7715C81.0599 99.6288 81.2249 99.502 81.3913 99.3896C89.4335 93.9586 78.4061 77.6455 105.277 75.8359C105.37 75.8286 105.464 75.8195 105.558 75.8125C105.606 75.8089 105.654 75.8103 105.701 75.8096C105.855 75.8002 106.011 75.7887 106.168 75.7803ZM54.3669 25.5713C57.5664 25.5713 60.3345 37.9203 61.6608 46.4053C70.1457 47.7316 82.4956 50.4997 82.4958 53.6992C82.4958 56.8988 70.1458 59.6659 61.6608 60.9922C60.3346 69.4771 57.5665 81.8271 54.3669 81.8271C51.1675 81.8265 48.4002 69.4779 47.0739 60.9932C38.589 59.6668 26.239 56.8988 26.239 53.6992C26.2392 50.4997 38.5891 47.7316 47.0739 46.4053C48.4002 37.9206 51.1675 25.572 54.3669 25.5713ZM82.9987 47.0508C84.5144 47.0508 86.3703 47.1899 88.2956 47.4678C96.1429 48.2541 108.029 50.5766 108.029 54.0908C108.029 58.4476 89.7603 60.6328 83.5671 60.6641C83.3786 60.6724 83.189 60.6818 82.9987 60.6885C77.0288 60.6884 90.8716 57.9864 90.4997 53.5293C90.4997 49.2879 77.0286 47.0509 82.9987 47.0508ZM25.7272 46.8799C31.6983 46.8799 18.2263 49.1169 18.2263 53.3584C17.8536 57.8158 31.6983 60.5186 25.7272 60.5186C24.3086 60.4688 22.9373 60.3711 21.6296 60.2305C13.8665 59.5772 0.66768 57.1964 0.66768 53.4932C0.6679 49.4643 16.2899 47.2919 23.5388 46.9629C24.3192 46.9085 25.0565 46.8799 25.7272 46.8799ZM14.823 17.832C17.268 15.0241 28.8984 21.9846 35.1589 26.5889C36.3493 27.387 37.4262 28.1981 38.2985 28.9473C42.8281 32.8375 31.0411 25.8867 28.2771 29.1035C25.09 32.2421 33.9425 43.1833 29.4128 39.293C29.1576 39.0577 28.9064 38.8222 28.6589 38.5869C23.803 34.2038 12.0213 21.0504 14.823 17.832ZM72.7526 26.1807C79.1228 21.5872 90.1545 15.1055 92.528 17.832C95.4091 21.1421 82.8654 34.9605 78.2946 38.9395C78.146 39.0688 78.0114 39.1822 77.8903 39.2812C77.8863 39.285 77.8827 39.2892 77.8786 39.293C73.3489 43.1833 82.2014 32.2421 79.0144 29.1035C76.2502 25.8869 64.4633 32.8375 68.9929 28.9473C70.0143 28.07 71.3163 27.1076 72.7526 26.1807ZM54.5065 0C58.1127 0.000152373 60.2309 12.5163 60.8718 20.3408C61.0799 21.9332 61.1862 23.4458 61.1862 24.7188C61.1862 26.2293 61.0329 26.495 60.7341 26.0498C60.5742 25.8603 60.3587 25.3713 60.0905 24.7109C58.9935 22.1347 57.1001 17.218 54.5378 17.2178C50.0803 16.845 47.5485 30.6898 47.5485 24.7188C47.5699 24.1114 47.5986 23.5126 47.6355 22.9238C48.0028 15.6983 50.4678 0 54.5065 0Z" fill="url(#paint0_linear_10_43)"/>
</g>
<defs>
<filter id="filter0_i_10_43" x="0" y="0" width="109.297" height="125.84" filterUnits="userSpaceOnUse" color-interpolation-filters="sRGB">
<feFlood flood-opacity="0" result="BackgroundImageFix"/>
<feBlend mode="normal" in="SourceGraphic" in2="BackgroundImageFix" result="shape"/>
<feColorMatrix in="SourceAlpha" type="matrix" values="0 0 0 0 0 0 0 0 0 0 0 0 0 0 0 0 0 0 127 0" result="hardAlpha"/>
<feOffset dx="0.681896" dy="0.681896"/>
<feGaussianBlur stdDeviation="1.70474"/>
<feComposite in2="hardAlpha" operator="arithmetic" k2="-1" k3="1"/>
<feColorMatrix type="matrix" values="0 0 0 0 0.0784314 0 0 0 0 0.156863 0 0 0 0 0.0862745 0 0 0 0.25 0"/>
<feBlend mode="normal" in2="shape" result="effect1_innerShadow_10_43"/>
</filter>
<linearGradient id="paint0_linear_10_43" x1="1.06" y1="75.6905" x2="30.9591" y2="115.659" gradientUnits="userSpaceOnUse">
<stop stop-color="#49F62A"/>
<stop offset="1" stop-color="#237814"/>
</linearGradient>
</defs>
</svg>
